<?xml version="1.0" encoding="utf-8"?>
<svg width="1000px" height="1000px" viewBox="0 0 1000 1000" version="1.1" xmlns:xlink="http://www.w3.org/1999/xlink" xmlns="http://www.w3.org/2000/svg">
  <defs>
    <path d="M0 500C0 223.858 223.858 0 500 0C776.142 0 1000 223.858 1000 500C1000 776.142 776.142 1000 500 1000C223.858 1000 0 776.142 0 500Z" id="path_1" />
    <clipPath id="clip_1">
      <use xlink:href="#path_1" clip-rule="evenodd" fill-rule="evenodd" />
    </clipPath>
  </defs>
  <g id="Group">
    <g id="Oval-Mask">
      <path d="M0 500C0 223.858 223.858 0 500 0C776.142 0 1000 223.858 1000 500C1000 776.142 776.142 1000 500 1000C223.858 1000 0 776.142 0 500Z" id="Mask" fill="#F5FFD0" fill-rule="evenodd" stroke="none" />
      <g clip-path="url(#clip_1)">
        <path d="M0 827C0 718.752 239.751 631 535.5 631C831.248 631 1071 718.752 1071 827C1071 935.248 831.248 1023 535.5 1023C239.751 1023 0 935.248 0 827Z" id="Oval" fill="#FFB9CD" fill-rule="evenodd" stroke="none" />
      </g>
    </g>
    <g id="Group" transform="translate(188 90)">
      <path d="M155.5 614.563C155.5 614.563 53.849 615.288 19.2382 649.563C-15.3726 683.837 1.92079 736.831 30.2382 749.563C58.5556 762.294 104.667 748.515 143.738 735.063C182.809 721.611 220.738 702.563 220.738 702.563" id="Vector" fill="#B17B5F" fill-rule="evenodd" stroke="#000000" stroke-width="4" />
      <path d="M568.71 695.119C568.71 695.119 624.344 664.523 624.239 605.563C624.133 546.602 605.823 491.967 574.738 447.063C543.654 402.158 473.738 400.563 473.738 400.563" id="Vector" fill="#B17B5F" fill-rule="evenodd" stroke="#000000" stroke-width="4" />
      <path d="M448.241 332.812L436 325L194 401L214 695L221 703L454 655C454 655 453.19 404.441 454 401C454.81 397.559 448.241 332.812 448.241 332.812Z" id="Vector" fill="#B17B5F" fill-rule="evenodd" stroke="none" />
      <path d="M442.605 260.06C442.605 260.06 447.143 350.94 474.238 401.563C501.333 452.185 569.868 545.581 574.738 637.563C579.609 729.545 527.753 740.504 498.738 761.063C469.723 781.622 376.719 804.379 352.238 807.562C327.757 810.746 220.664 839.764 198.238 780.063C175.813 720.361 246.52 683.225 266.738 676.063C286.957 668.901 336.028 655.81 369.738 651.563C403.448 647.315 452.238 637.563 452.238 637.563" id="Vector" fill="#B17B5F" fill-rule="evenodd" stroke="#000000" stroke-width="4" />
      <path d="M474 401L551.5 542.612C551.5 542.612 571.662 544.38 587.738 534.063C603.815 523.745 608.738 513.5 608.738 513.5C608.738 513.5 594.185 456.625 560.5 428.5C526.815 400.375 474 401 474 401Z" id="Vector" fill="#EFD7A7" fill-rule="evenodd" stroke="#000000" stroke-width="4" />
      <path d="M170.307 422.569C170.304 422.57 117.933 509.538 110.738 528.563C103.543 547.588 93.3604 566.856 98.2381 588.063C103.116 609.269 114.097 624.265 134.238 629.063C154.379 633.86 162.238 632.563 162.238 632.563" id="Vector" fill="#B17B5F" fill-rule="evenodd" stroke="#000000" stroke-width="4" />
      <path d="M193.937 354.705C193.937 354.705 149.113 463.205 150.238 545.063C151.363 626.92 162.503 658.086 220.738 702.563" id="Vector" fill="#B17B5F" fill-rule="evenodd" stroke="#000000" stroke-width="4" />
      <path d="M338.777 411.563C338.777 411.563 336.083 483.827 323.738 532.563C311.394 581.299 286.815 615.243 317.738 644.563C348.661 673.883 415.814 635.89 433.239 597.063C450.663 558.235 458.993 523.536 450.739 464.563C442.485 405.59 433.239 396.063 433.239 396.063" id="Vector" fill="#B17B5F" fill-rule="evenodd" stroke="#000000" stroke-width="4" />
      <path d="M338.684 294.852C338.684 294.852 373.26 294.292 392.238 285.563C411.216 276.833 442.738 259.563 442.738 259.563" id="Vector" fill="none" fill-rule="evenodd" stroke="#000000" stroke-width="4" />
      <path d="M443 260L338 295L194 355L179 396C179 396 184.597 388.661 187.738 393.563C190.879 398.465 213.442 433.982 226.738 433.563C240.034 433.144 290.379 407.279 298.738 399.063C307.097 390.846 327.758 377.962 340.738 368.063C353.719 358.163 414.89 355.402 424.738 348.063C434.586 340.724 450.238 325.063 450.238 325.063L443 260Z" id="Vector" fill="#EFD7A7" fill-rule="evenodd" stroke="#000000" stroke-width="4" />
      <path d="M258.238 21.0626C258.238 21.0626 215.321 11.0293 186.738 34.5626C158.155 58.096 168.286 120.362 155.738 136.063C143.19 151.764 140.382 187.195 150.738 196.563C161.094 205.93 165.238 202.563 165.238 202.563" id="Vector" fill="#B17B5F" fill-rule="evenodd" stroke="#000000" stroke-width="4" />
      <path d="M160.738 211.563C160.738 211.563 163.671 207.032 165.238 202.565C166.805 198.098 180.562 169.807 179.238 157.064C177.914 144.321 179.846 123.71 184.238 109.563C188.631 95.4157 218.454 32.4413 258.739 21.0627C299.023 9.68419 372.051 7.57479 383.239 10.0626C394.427 12.5504 392.739 12.0626 392.739 12.0626C392.739 12.0626 451.417 144.605 459 185C466.583 225.395 443 260 443 260C443 260 399.743 282.862 383.239 288C366.735 293.138 343 295 343 295L160.738 211.563Z" id="Vector" fill="#B17B5F" fill-rule="evenodd" stroke="#000000" stroke-width="4" />
      <path d="M160.738 211.563C160.738 211.563 200.62 185.308 220.739 184.563C240.858 183.817 272.897 192.908 288.739 203.063C304.581 213.217 333.485 233.408 341.739 269.063C349.993 304.718 315.685 310.785 311.238 315.063C306.792 319.341 262.808 349.81 230.238 354.563C197.669 359.316 171.084 345.529 160.594 338.563C150.103 331.596 118.706 299.706 125.738 269.063C132.77 238.42 159.59 216.095 160.738 211.563Z" id="Vector" fill="#EFD7A7" fill-rule="evenodd" stroke="#000000" stroke-width="4" />
      <path d="M145.559 279.158C145.559 279.158 155.468 268.655 167.238 266.063C179.008 263.47 194.002 267.972 200.238 275.563C206.474 283.153 196.017 286.885 190.738 289.563C185.459 292.241 166.42 300.811 160.738 298.563C155.056 296.314 142.7 290.673 145.559 279.158Z" id="Vector" fill="#000000" fill-rule="evenodd" stroke="#000000" stroke-width="4" />
      <path d="M387.582 17.9129C387.582 17.9129 408.536 -7.23467 439.238 2.06261C469.941 11.3599 488.048 54.8679 492.238 85.563C496.429 116.258 508.602 159.196 492.238 184.563C475.874 209.93 428.72 211.128 413.238 205.563C397.756 199.998 383.271 179.115 387.582 133.563C391.893 88.0112 395.445 71.5027 393.238 54.0626C391.031 36.6225 387.582 17.9129 387.582 17.9129Z" id="Vector" fill="#B17B5F" fill-rule="evenodd" stroke="#000000" stroke-width="4" />
      <path d="M181.214 143.391C180.374 157.324 189.575 161.069 196.366 161.884C203.157 162.698 208.825 154.513 209.029 143.086C209.232 131.66 204.926 122.003 196.313 121.446C187.7 120.889 182.054 129.457 181.214 143.391Z" id="Vector" fill="#B7A070" fill-rule="evenodd" stroke="#000000" stroke-width="4" />
      <path d="M303.238 144.063C305.354 161.981 320.522 164.895 331.238 164.563C341.955 164.23 348.726 152.659 346.238 138.063C343.751 123.466 334.713 112.034 321.238 113.063C307.763 114.091 301.122 126.144 303.238 144.063Z" id="Vector" fill="#B7A070" fill-rule="evenodd" stroke="#000000" stroke-width="4" />
      <path d="M192.5 130C196.09 130 199 132.91 199 136.5L199 148.5C199 152.09 196.09 155 192.5 155L192.5 155C188.91 155 186 152.09 186 148.5L186 136.5C186 132.91 188.91 130 192.5 130Z" id="Rectangle" fill="#000000" stroke="none" />
      <path d="M331 124C335.419 124 339 127.581 339 132L339 148C339 152.419 335.419 156 331 156L329 156C324.581 156 321 152.419 321 148L321 132C321 127.581 324.581 124 329 124L331 124Z" id="Rectangle" fill="#000000" stroke="none" />
      <path d="M190 135C190 133.343 191.343 132 193 132C194.657 132 196 133.343 196 135C196 136.657 194.657 138 193 138C191.343 138 190 136.657 190 135Z" id="Oval" fill="#FFFFFF" fill-rule="evenodd" stroke="none" />
      <path d="M328 132.5C328 130.015 330.015 128 332.5 128C334.985 128 337 130.015 337 132.5C337 134.985 334.985 137 332.5 137C330.015 137 328 134.985 328 132.5Z" id="Oval" fill="#FFFFFF" fill-rule="evenodd" stroke="none" />
    </g>
  </g>
</svg>