<?xml version="1.0" encoding="utf-8"?>
<svg width="600" height="600" viewBox="0 0 600 600" fill="none" stroke="none" version="1.1" xmlns:xlink="http://www.w3.org/1999/xlink" xmlns="http://www.w3.org/2000/svg">
  <defs>
    <path id="path_1" d="M600 0L600 0L600 600L0 600L0 0L600 0Z" />
    <rect id="rect_2" x="0" y="0" width="600" height="600" />
    <clipPath id="clip_path_3">
      <use xlink:href="#rect_2" />
    </clipPath>
    <filter color-interpolation-filters="sRGB" x="-521.622" y="-195.654" width="523.622" height="197.654" id="filter_4">
      <feFlood flood-opacity="0" result="BackgroundImageFix_1" />
      <feColorMatrix type="matrix" values="0 0 0 0 0 0 0 0 0 0 0 0 0 0 0 0 0 0 1 0" in="SourceAlpha" />
      <feOffset dx="0" dy="3" />
      <feGaussianBlur stdDeviation="2.4" />
      <feColorMatrix type="matrix" values="0 0 0 0 0.392 0 0 0 0 0.392 0 0 0 0 0.392 0 0 0 0.969 0" />
      <feBlend mode="normal" in2="BackgroundImageFix_1" result="Shadow_2" />
      <feBlend mode="normal" in="SourceGraphic" in2="Shadow_2" result="Shape_3" />
    </filter>
  </defs>
  <g id="Frame" opacity="1" clip-path="url(#clip_path_3)">
    <g>
      <use xlink:href="#path_1" style="fill:#FFFFFF;fill-rule:evenodd;fill-opacity:0;mix-blend-mode:normal;" />
      <g>
        <g id="Letter" transform="matrix(0.966 -0.259 0.259 0.966 0 210.928)">
          <g id="Group" transform="scale(1 1)">
            <g style="fill:#FFF9ED;fill-rule:evenodd;mix-blend-mode:normal;" transform="scale(1 1)">
              <path id="Rectangle" d="M9.89861 1.36424e-12L525.137 0.000283887C530.604 0.000286899 535.035 4.43197 535.035 9.89872L535.035 311.125C535.035 316.592 530.604 321.024 525.137 321.024L9.89843 321.024C4.43167 321.024 -3.01609e-06 316.592 1.36424e-12 311.125L0.000166191 9.89843C0.000169207 4.43167 4.43185 -3.01208e-06 9.89861 1.36424e-12Z" />
              <path d="M525.137 0.00028934L9.89861 5.45385e-06C4.43186 2.44177e-06 0.000174668 4.43168 0.000171652 9.89843L5.46111e-06 311.125C2.44502e-06 316.592 4.43168 321.024 9.89843 321.024L525.137 321.024C530.604 321.024 535.035 316.592 535.035 311.125L535.035 9.89873C535.035 4.43197 530.604 0.000292353 525.137 0.00028934ZM5.72779 5.72761Q7.4554 4 9.89861 4.00001L525.137 4.00029Q527.58 4.00029 529.308 5.72791Q531.035 7.4555 531.035 9.89873L531.035 311.125Q531.035 313.568 529.308 315.296Q527.58 317.024 525.137 317.024L9.89843 317.024Q7.45521 317.024 5.72761 315.296Q4 313.568 4.00001 311.125L4.00017 9.89844Q4.00017 7.45522 5.72779 5.72761Z" fill-rule="evenodd" style="fill:#000000;fill-rule:evenodd;" />
            </g>
            <g id="Group" transform="matrix(-1 0 0 1 529.448 186.034)">
              <path id="Path" d="M110.495 0L0 63.3778" style="fill:none;stroke-width:4;stroke:#000000;stroke-opacity:0.498;mix-blend-mode:normal;" transform="matrix(-1 0 0 1 110.495 62.396)" />
              <path id="Path" d="M71.6536 0L0 41.6627" style="fill:none;stroke-width:3;stroke:#000000;stroke-opacity:0.498;mix-blend-mode:normal;" transform="matrix(-1 0 0 1 220.135 0)" />
            </g>
            <g id="Group" transform="matrix(1 0 0 1 6.653 185.468)">
              <path id="Path" d="M0 42.9519L75.9164 0" style="fill:none;stroke-width:4;stroke:#000000;stroke-opacity:0.498;mix-blend-mode:normal;" transform="matrix(1 0 0 1 0 82.809)" />
              <path id="Path" d="M0 61.6404L106.008 0" style="fill:none;stroke-width:3;stroke:#000000;stroke-opacity:0.498;mix-blend-mode:normal;" transform="matrix(1 0 0 1 114.116 0)" />
            </g>
            <path id="Path" d="M0 0L261.098 197.654L523.622 0.000462055" style="fill:none;stroke-width:4;stroke:#000000;filter:url(#filter_4);mix-blend-mode:normal;" transform="matrix(1 0 0 1 6.42 6.266)" />
          </g>
          <g id="Group" transform="matrix(1 0 0 1 196.718 96.837)">
            <path id="Path" d="M72.893 7.13864C72.893 7.13864 52.0517 -6.1192 40.8194 3.5004C29.5873 13.1199 30.0456 18.7899 15.5401 25.0198C1.03467 31.25 0.241275 43.0848 4.50922 57.2992C8.77719 71.5136 6.64107 71.6667 4.50922 73.8872C2.3775 76.1079 -4.47273 89.2863 4.50922 95.4068C13.4913 101.527 30.1399 98.8816 32.5462 105.718C34.9524 112.555 38.6331 120.095 45.4154 122.306C52.1982 124.517 64.9724 118.787 69.3158 122.306C73.6593 125.825 79.4056 120.469 82.1854 122.306C84.965 124.143 85.7185 129.921 91.3777 127.686C97.0368 125.452 113.397 108.04 117.576 105.718C121.756 103.396 129.593 104.608 129.986 99.89C130.378 95.1724 130.432 85.1568 133.663 77.922C136.894 70.6875 145.371 68.3908 140.557 61.7825C135.744 55.1743 121.134 40.9082 121.253 35.3314C121.372 29.7547 118.692 13.0112 111.601 11.5703C104.51 10.1293 86.4957 13.5719 82.1854 11.5703C77.875 9.56851 72.893 7.13864 72.893 7.13864Z" style="fill:#FF5D5D;fill-rule:evenodd;stroke-width:4;stroke:#B60E0B;mix-blend-mode:normal;" transform="scale(1 1)" />
            <g style="mix-blend-mode:normal;" transform="matrix(1 0 0 1 16.547 19.726)">
              <path id="Oval" d="M0 44.3841C0 19.8714 24.282 0 54.2354 0C84.1887 0 108.471 19.8715 108.471 44.3841C108.471 68.8967 84.1887 88.7681 54.2354 88.7681C24.282 88.7681 0 68.8967 0 44.3841Z" />
              <path d="M54.2354 0C24.282 0 0 19.8714 0 44.3841C0 68.8967 24.282 88.7681 54.2354 88.7681C84.1887 88.7681 108.471 68.8967 108.471 44.3841C108.471 19.8715 84.1887 0 54.2354 0ZM18.4184 72.6727Q4 60.8733 4 44.3841Q4 27.8948 18.4185 16.0953Q33.1984 3.99999 54.2354 4Q75.2722 4 90.0522 16.0954Q104.471 27.8949 104.471 44.3841Q104.471 60.8733 90.0522 72.6727Q75.2722 84.7681 54.2354 84.7681Q33.1984 84.7681 18.4184 72.6727Z" fill-rule="evenodd" style="fill:#B60E0B;fill-rule:evenodd;" />
            </g>
            <g id="Group" transform="matrix(1 0 0 1 29.837 26.9)">
              <g id="Group" transform="matrix(1 0 0 1 12.811 16.047)">
                <path id="Path" d="M0.271745 30.418C-0.622771 29.5453 0.941453 27.5465 1.36798 26.8527C3.08838 24.0557 8.16289 22.0962 10.9932 20.2568C14.569 17.9334 13.1229 9.55383 16.8412 7.48181C21.6576 4.79788 27.0832 2.26588 32.2533 1.00511C32.8411 0.861556 36.6004 -0.675599 37.1269 0.351256C39.3808 4.74954 28.6953 10.3576 26.3443 12.6512" style="fill:none;stroke-width:1;stroke:#B60E0B;mix-blend-mode:normal;" transform="matrix(1 0 0 1 0.094 0)" />
                <path id="Path" d="M0 5.62292C1.04922 4.59927 4.65747 4.50208 6.15268 4.13734C10.7711 3.01077 17.0776 -0.814537 22.0524 0.156243C23.7289 0.483269 23.2018 2.03919 22.6613 2.8301C21.6593 4.29665 16.3553 6.50762 14.6808 6.87077C12.1338 7.42306 9.07571 9.03973 6.70108 10.1983" style="fill:none;stroke-width:1;stroke:#B60E0B;mix-blend-mode:normal;" transform="matrix(1 0 0 1 35.089 0.611)" />
                <path id="Path" d="M12.3059 0.26901C13.3063 0.0738957 23.6876 -0.898822 21.8699 2.64599C20.5577 5.20526 13.0859 6.51156 10.4175 7.22117C8.37302 7.76483 6.37952 8.1667 4.38633 8.9445C3.64115 9.23513 2.85273 9.58596 2.07163 9.77627C1.69431 9.86807 1.32597 10.1946 0.974983 10.2517C0.652168 10.3039 -0.0214462 10.6676 0.000526428 10.6676" style="fill:none;stroke-width:1;stroke:#B60E0B;mix-blend-mode:normal;" transform="matrix(1 0 0 1 45.2 3.648)" />
                <path id="Path" d="M18.3362 0.0343332C17.855 0.0343332 17.9357 -0.226211 19.6154 0.688172C19.9249 0.889298 20.261 1.31755 20.5294 1.57948C20.9962 2.03494 20.7299 3.65552 20.4075 4.07492C18.4229 6.65648 11.5748 7.87795 8.65036 8.59094C6.47803 9.12039 1.59784 10.0059 0 11.5618" style="fill:none;stroke-width:1;stroke:#B60E0B;mix-blend-mode:normal;" transform="matrix(1 0 0 1 47.76 7.091)" />
                <path id="Path" d="M62.6233 0C64.5421 0 61.2986 4.81697 60.7348 5.22903C56.2351 8.51979 49.8052 8.96939 44.8964 11.7059C42.1031 13.2632 38.8681 14.377 36.6723 16.8754C35.2289 18.5181 33.1388 21.5103 30.7026 21.5102C27.5057 21.5101 24.232 21.3736 21.1993 21.8666C18.9111 22.2386 17.4709 24.9011 15.473 25.5507C10.2298 27.2561 9.96957 23.5426 5.48248 20.9159C4.29747 20.2222 0 16.8099 0 15.3899" style="fill:none;stroke-width:1;stroke:#B60E0B;mix-blend-mode:normal;" transform="matrix(1 0 0 1 0 14.374)" />
              </g>
              <g id="Group" transform="matrix(1 0 0 1 15.02 0)">
                <g style="mix-blend-mode:normal;" transform="matrix(1 0 0 1 42.911 4.067)">
                  <path id="Star" d="M7.15506 0L7.23596 3.57185L10.2983 5.53149L6.84088 6.7103L5.87582 10.1569L3.65869 7.31379L0 7.48405L2.08685 4.54797L0.790039 1.20693L4.29752 2.23545L7.15506 0Z" />
                  <path d="M7.23596 3.57185L7.18332 1.24754L7.15506 0L6.17222 0.768876L4.29752 2.23545L2.0005 1.56188L0.790039 1.20693L1.24648 2.38288L2.08685 4.54797L0.73587 6.44872L0 7.48405L1.26883 7.425L3.65869 7.31379L5.11172 9.17705L5.87582 10.1569L6.21086 8.96035L6.84088 6.7103L9.08791 5.94417L10.2983 5.53149L9.22115 4.84221L7.23596 3.57185ZM8.01078 5.25489L6.24828 4.12703L6.20047 2.01641L4.50907 3.33959L2.45694 2.73784L3.214 4.68826L2.0047 6.38968L4.12907 6.29082L5.44675 7.98052L6.01987 5.9337L8.01078 5.25489Z" fill-rule="evenodd" style="fill:#B60E0B;fill-rule:evenodd;" />
                </g>
                <g style="mix-blend-mode:normal;" transform="matrix(1 0 0 1 21.101 0)">
                  <path id="Star" d="M5.51544 0L7.21982 3.54201L11.0309 4.10998L8.27304 6.86691L8.9241 10.7598L5.51529 8.92168L2.10687 10.7598L2.75754 6.86687L0 4.10998L3.81113 3.54201L5.51544 0Z" />
                  <path d="M7.21982 3.54201L6.07032 1.15314L5.51544 0L4.96058 1.15315L3.81113 3.54201L1.2309 3.92654L0 4.10998L0.880091 4.98986L2.75754 6.86687L2.31558 9.51107L2.10687 10.7598L3.22118 10.1588L5.51529 8.92168L7.80972 10.1589L8.9241 10.7598L8.71526 9.51104L8.27304 6.86691L10.1507 4.98985L11.0309 4.10998L9.79997 3.92653L7.21982 3.54201ZM8.9198 4.8064L6.54842 4.45299L5.51546 2.3063L4.48253 4.45299L2.11099 4.80642L3.82875 6.52378L3.42989 8.91014L5.51526 7.78555L7.60087 8.91014L7.20177 6.52384L8.9198 4.8064Z" fill-rule="evenodd" style="fill:#B60E0B;fill-rule:evenodd;" />
                </g>
                <g style="mix-blend-mode:normal;" transform="matrix(1 0 0 1 0 4.091)">
                  <path id="Star" d="M3.14334 0L6.00072 2.23547L9.50835 1.20694L8.21162 4.54802L10.2983 7.48411L6.63972 7.31377L4.42209 10.1569L3.45752 6.71037L0 5.53142L3.06218 3.57188L3.14334 0Z" />
                  <path d="M6.00072 2.23547L4.12613 0.768886L3.14334 0L3.11499 1.2475L3.06218 3.57188L1.07711 4.84216L0 5.53142L1.21034 5.94412L3.45752 6.71037L4.42209 10.1569L5.18631 9.17712L6.63972 7.31377L9.02947 7.42504L10.2983 7.48411L9.56247 6.44877L8.21162 4.54802L9.05195 2.38287L9.50835 1.20694L8.29792 1.56187L6.00072 2.23547ZM7.84152 2.7378L5.78914 3.33962L4.09778 2.01638L4.04982 4.1271L2.28745 5.25486L4.27861 5.93381L4.85142 7.98053L6.16942 6.29078L8.29367 6.38969L7.0845 4.6883L7.84152 2.7378Z" fill-rule="evenodd" style="fill:#B60E0B;fill-rule:evenodd;" />
                </g>
              </g>
              <g id="Group" transform="matrix(1 0 0 1 1.159 13.935)">
                <path id="Path" d="M22.0565 8.64227C22.0565 8.36935 17.4287 7.00717 16.8153 6.7079C12.887 4.79164 8.46821 3.34837 4.70386 1.25022C3.83732 0.766872 1.37299 -0.40778 0.2416 0.144542C-0.378701 0.447872 0.354896 3.15655 0.666587 3.46081C2.72568 5.46972 5.99818 5.75657 8.1036 7.46772C9.49786 8.60136 13.5666 10.2312 15.3988 10.2312" style="fill:none;stroke-width:1;stroke:#B60E0B;mix-blend-mode:normal;" transform="matrix(1 0 0 1 6.968 0)" />
                <path id="Path" d="M6.4654 0.997994C4.97954 0.997994 2.01987 -0.670387 0.515889 0.307137C-1.17089 1.40351 1.74863 4.67821 2.56983 5.21247C6.4592 7.74267 11.5837 12.251 16.3105 13.0191C17.2517 13.1723 18.1564 14.9536 19.1435 14.9536" style="fill:none;stroke-width:1;stroke:#B60E0B;mix-blend-mode:normal;" transform="matrix(1 0 0 1 0.603 1.496)" />
                <path id="Path" d="M1.40189 0.000799656C1.40189 -0.0394378 -0.917277 1.44321 0.410222 3.38608C1.16533 4.49125 2.34409 5.54844 3.31424 6.49486C4.9237 8.06493 6.78118 9.32416 8.34285 10.8473C10.9605 13.4003 15.3411 14.0817 17.8338 16.5125" style="fill:none;stroke-width:1;stroke:#B60E0B;mix-blend-mode:normal;" transform="matrix(1 0 0 1 0 4.496)" />
                <path id="Path" d="M0.68498 0C-0.599612 0 0.233686 3.52589 0.68498 4.07632C3.20962 7.15423 5.92503 9.39543 8.75921 12.1591C9.4291 12.8124 10.6098 14.3009 11.5924 14.3009" style="fill:none;stroke-width:1;stroke:#B60E0B;mix-blend-mode:normal;" transform="matrix(1 0 0 1 3.762 12.372)" />
              </g>
              <g id="Group" transform="matrix(1 0 0 1 0 34.971)">
                <g id="Group" transform="matrix(1 -0 0 1 0 0.169)">
                  <g id="Group" transform="matrix(1 0 0 1 0.497 0)">
                    <path id="Path" d="M0.552468 0C0.552468 0 -0.690605 2.93236 0.552498 4.48323" style="fill:none;stroke-width:1;stroke:#B60E0B;mix-blend-mode:normal;" transform="matrix(1 0 -0 1 3.451 2.518)" />
                    <path id="Path" d="M5.77763e-08 0C5.77763e-08 0 0.504181 4.12946 3.90996 3.86513C7.31576 3.60095 6.66775 9.93573e-08 6.66775 9.93573e-08" style="fill:none;stroke-width:1;stroke:#B60E0B;mix-blend-mode:normal;" transform="matrix(1 0 -0 1 0 0)" />
                  </g>
                  <g id="Group" transform="matrix(0.988 -0.156 0.156 0.988 0 5.195)">
                    <path id="Path" d="M0.194284 0C0.194284 0 -0.563238 3.08585 0.913324 4.42804" style="fill:none;stroke-width:1;stroke:#B60E0B;mix-blend-mode:normal;" transform="matrix(0.988 0.156 -0.156 0.988 4.338 3.511)" />
                    <path id="Path" d="M0 1.01732C0 1.01732 1.16035 5.01863 4.48176 4.23843C7.80327 3.45772 6.58568 0 6.58568 0" style="fill:none;stroke-width:1;stroke:#B60E0B;mix-blend-mode:normal;" transform="matrix(0.988 0.156 -0.156 0.988 0.679 0)" />
                  </g>
                  <g id="Group" transform="matrix(0.94 -0.342 0.342 0.94 0.962 11.502)">
                    <path id="Path" d="M0.00276518 0C0.00276518 0 -0.137219 3.1703 1.57474 4.21287" style="fill:none;stroke-width:1;stroke:#B60E0B;mix-blend-mode:normal;" transform="matrix(0.94 0.342 -0.342 0.94 4.909 4.648)" />
                    <path id="Path" d="M0 2.22462C0 2.22462 1.92184 5.93648 5.02959 4.55206C8.13719 3.16806 6.26575 0 6.26575 0" style="fill:none;stroke-width:1;stroke:#B60E0B;mix-blend-mode:normal;" transform="matrix(0.94 0.342 -0.342 0.94 1.663 0)" />
                  </g>
                  <g id="Group" transform="matrix(0.883 -0.469 0.469 0.883 2.447 17.367)">
                    <path id="Path" d="M0 0C0 0 0.313615 3.15822 2.15779 3.95846" style="fill:none;stroke-width:1;stroke:#B60E0B;mix-blend-mode:normal;" transform="matrix(0.883 0.469 -0.469 0.883 5.015 5.271)" />
                    <path id="Path" d="M0 3.05334C0 3.05334 2.43271 6.4684 5.31277 4.67558C8.19261 2.88278 5.88727 0 5.88727 0" style="fill:none;stroke-width:1;stroke:#B60E0B;mix-blend-mode:normal;" transform="matrix(0.883 0.469 -0.469 0.883 2.439 0)" />
                  </g>
                  <g id="Group" transform="matrix(0.755 -0.656 0.656 0.755 5.231 23.26)">
                    <path id="Path" d="M0 0C0 0 1.03389 3.00865 3.0154 3.38354" style="fill:none;stroke-width:1;stroke:#B60E0B;mix-blend-mode:normal;" transform="matrix(0.755 0.656 -0.656 0.755 4.893 5.817)" />
                    <path id="Path" d="M0 4.26701C0 4.26701 3.15784 7.0605 5.55069 4.68191C7.94336 2.30307 5.03213 0 5.03213 0" style="fill:none;stroke-width:1;stroke:#B60E0B;mix-blend-mode:normal;" transform="matrix(0.755 0.656 -0.656 0.755 3.701 0)" />
                  </g>
                </g>
                <g id="Group" transform="matrix(-1 0 0 1 81.653 0)">
                  <g id="Group" transform="matrix(1 0 0 1 0.5 0)">
                    <path id="Path" d="M0 4.48323C0 4.48323 1.2431 1.55087 0 0" style="fill:none;stroke-width:1;stroke:#B60E0B;mix-blend-mode:normal;" transform="matrix(-1 0 0 1 4.01 2.519)" />
                    <path id="Path" d="M6.71701 3.87729C6.71701 3.87729 6.21256 -0.252284 2.80667 0.0121812C-0.598844 0.276295 0.0492579 3.87729 0.0492579 3.87729" style="fill:none;stroke-width:1;stroke:#B60E0B;mix-blend-mode:normal;" transform="matrix(-1 0 0 1 6.717 0)" />
                  </g>
                  <g id="Group" transform="matrix(0.988 -0.156 0.156 0.988 0 5.195)">
                    <path id="Path" d="M0.719269 4.42804C0.719269 4.42804 1.47632 1.34219 0 0" style="fill:none;stroke-width:1;stroke:#B60E0B;mix-blend-mode:normal;" transform="matrix(-0.988 -0.156 -0.156 0.988 5.242 3.653)" />
                    <path id="Path" d="M6.80358 3.32189C6.80358 3.32189 5.64309 -0.679372 2.32174 0.100901C-0.999949 0.881618 0.218008 4.33932 0.218008 4.33932" style="fill:none;stroke-width:1;stroke:#B60E0B;mix-blend-mode:normal;" transform="matrix(-0.988 -0.156 -0.156 0.988 7.399 1.064)" />
                  </g>
                  <g id="Group" transform="matrix(0.94 -0.342 0.342 0.94 0.962 11.502)">
                    <path id="Path" d="M1.57199 4.21286C1.57199 4.21286 1.71207 1.04262 0 0" style="fill:none;stroke-width:1;stroke:#B60E0B;mix-blend-mode:normal;" transform="matrix(-0.94 -0.342 -0.342 0.94 6.391 5.187)" />
                    <path id="Path" d="M6.82441 2.63676C6.82441 2.63676 4.90275 -1.07515 1.79469 0.309307C-1.313 1.69342 0.558913 4.86135 0.558913 4.86135" style="fill:none;stroke-width:1;stroke:#B60E0B;mix-blend-mode:normal;" transform="matrix(-0.94 -0.342 -0.342 0.94 8.076 2.334)" />
                  </g>
                  <g id="Group" transform="matrix(0.883 -0.469 0.469 0.883 2.448 17.366)">
                    <path id="Path" d="M2.15778 3.95846C2.15778 3.95846 1.84408 0.800231 0 0" style="fill:none;stroke-width:1;stroke:#B60E0B;mix-blend-mode:normal;" transform="matrix(-0.883 -0.469 -0.469 0.883 6.919 6.285)" />
                    <path id="Path" d="M6.76073 2.14234C6.76073 2.14234 4.32799 -1.27246 1.44765 0.520449C-1.43205 2.31327 0.87389 5.19592 0.87389 5.19592" style="fill:none;stroke-width:1;stroke:#B60E0B;mix-blend-mode:normal;" transform="matrix(-0.883 -0.469 -0.469 0.883 8.409 3.174)" />
                  </g>
                  <g id="Group" transform="matrix(0.755 -0.656 0.656 0.755 5.231 23.26)">
                    <path id="Path" d="M3.01538 3.38353C3.01538 3.38353 1.98147 0.374878 0 0" style="fill:none;stroke-width:1;stroke:#B60E0B;mix-blend-mode:normal;" transform="matrix(-0.755 -0.656 -0.656 0.755 7.17 7.794)" />
                    <path id="Path" d="M6.4945 1.3743C6.4945 1.3743 3.33645 -1.41924 0.943814 0.959334C-1.44876 3.33813 1.46222 5.64126 1.46222 5.64126" style="fill:none;stroke-width:1;stroke:#B60E0B;mix-blend-mode:normal;" transform="matrix(-0.755 -0.656 -0.656 0.755 8.602 4.261)" />
                  </g>
                </g>
                <g id="Group" transform="matrix(1 -0 0 1 18.801 25.104)">
                  <g id="Group" transform="scale(1 1)">
                    <path id="Path" d="M3.66142e-05 0C-0.00808106 0 1.33607 1.2854 1.59339 1.46805C2.00382 1.75932 2.38909 2.05876 2.78856 2.33162C3.58854 2.87746 4.68375 3.21533 5.62173 3.36783C6.69562 3.5426 10.7124 3.09825 10.7124 1.46805" style="fill:none;stroke-width:1;stroke:#B60E0B;mix-blend-mode:normal;" transform="matrix(1 0 -0 1 0 4.879)" />
                    <path id="Path" d="M6.92903 0.5051C4.55226 -1.81039 3.63078 4.54337 3.29905 5.29785C2.95634 6.07788 2.35371 6.853 1.52858 7.15444C0.993999 7.34995 -0.310474 8.32031 0.0677605 8.32031" style="fill:none;stroke-width:1;stroke:#B60E0B;mix-blend-mode:normal;" transform="matrix(1 0 -0 1 13.035 3.813)" />
                    <path id="Path" d="M0 0C0.83905 0.408798 1.20016 2.37471 2.30173 2.37471C3.0021 2.37471 3.4693 1.99417 4.11664 1.81357C4.74399 1.63847 5.76593 0.215897 6.1087 0.215897" style="fill:none;stroke-width:1;stroke:#B60E0B;mix-blend-mode:normal;" transform="matrix(1 0 -0 1 12.97 0)" />
                    <path id="Path" d="M0 0C0 1.54008 0 3.07997 0 4.62006" style="fill:none;stroke-width:1;stroke:#B60E0B;mix-blend-mode:normal;" transform="matrix(1 0 -0 1 54.98 5.657)" />
                    <path id="Path" d="M0 0C0 1.60146 2.15894 4.01544 3.7626 4.01544" style="fill:none;stroke-width:1;stroke:#B60E0B;mix-blend-mode:normal;" transform="matrix(1 0 -0 1 18.947 10.795)" />
                  </g>
                  <g id="Group" transform="matrix(-1 0 0 1 54.992 0)">
                    <path id="Path" d="M10.7123 3.40338C10.7204 3.40338 9.37631 2.11801 9.11893 1.9353C8.70859 1.64409 8.32336 1.3446 7.92368 1.07166C7.12384 0.525757 6.02859 0.188157 5.09061 0.0355687C4.01685 -0.139282 0 0.305161 0 1.9353" style="fill:none;stroke-width:1;stroke:#B60E0B;mix-blend-mode:normal;" transform="matrix(-1 0 0 1 20.808 4.879)" />
                    <path id="Path" d="M0 7.81523C2.37659 10.1307 3.2981 3.77696 3.62982 3.02251C3.97253 2.24251 4.5752 1.46759 5.40057 1.16592C5.93518 0.970535 7.23962 0 6.86121 0" style="fill:none;stroke-width:1;stroke:#B60E0B;mix-blend-mode:normal;" transform="matrix(-1 0 0 1 30.06 3.813)" />
                    <path id="Path" d="M6.1087 2.37471C5.26968 1.9659 4.90854 0 3.80698 0C3.10669 0 2.6395 0.380539 1.992 0.561172C1.36475 0.736206 0.342834 2.15881 0 2.15881" style="fill:none;stroke-width:1;stroke:#B60E0B;mix-blend-mode:normal;" transform="matrix(-1 0 0 1 29.174 0)" />
                    <path id="Path" d="M6.88451e-08 4.62006C4.58967e-08 3.07997 2.29484e-08 1.54008 0 0" style="fill:none;stroke-width:1;stroke:#B60E0B;mix-blend-mode:normal;" transform="matrix(-1 0 0 1 0 5.657)" />
                    <path id="Path" d="M3.7626 4.01544C3.7626 2.41399 1.60345 0 0 0" style="fill:none;stroke-width:1;stroke:#B60E0B;mix-blend-mode:normal;" transform="matrix(-1 0 0 1 32.804 10.796)" />
                  </g>
                </g>
              </g>
              <g id="Group" transform="matrix(1 0 0 1 33.316 32.197)">
                <path id="Path" d="M0 0L2.47791 0" style="fill:none;stroke-width:1;stroke:#B60E0B;mix-blend-mode:normal;" transform="matrix(1 0 0 1 6.763 33.117)" />
                <path id="Path" d="M0 0L0 9.38568" style="fill:none;stroke-width:1;stroke:#B60E0B;mix-blend-mode:normal;" transform="matrix(1 0 0 1 40.502 4.147)" />
                <path id="Path" d="M0 0L2.34265 0" style="fill:none;stroke-width:1;stroke:#B60E0B;mix-blend-mode:normal;" transform="matrix(1 0 0 1 12.413 33.117)" />
                <path id="Path" d="M0.0293579 0L0 9.45245" style="fill:none;stroke-width:1;stroke:#B60E0B;mix-blend-mode:normal;" transform="matrix(1 0 0 1 13.25 4.08)" />
                <path id="Path" d="M0 0L5.73856 0" style="fill:none;stroke-width:1;stroke:#B60E0B;mix-blend-mode:normal;" transform="matrix(1 0 0 1 8.1 25.469)" />
                <path id="Path" d="M0 0L6.01248 0" style="fill:none;stroke-width:1;stroke:#B60E0B;mix-blend-mode:normal;" transform="matrix(1 0 0 1 7.824 31.632)" />
                <path id="Path" d="M0 0L2.71762 0" style="fill:none;stroke-width:1;stroke:#B60E0B;mix-blend-mode:normal;" transform="matrix(1 0 0 1 6.524 23.409)" />
                <path id="Path" d="M0 0L2.39401 0" style="fill:none;stroke-width:1;stroke:#B60E0B;mix-blend-mode:normal;" transform="matrix(1 0 0 1 12.361 23.391)" />
                <path id="Path" d="M7.78004 2.46596C7.78004 -2.19134 -3.37871 0.231452 1.03154 5.70638C1.44585 6.22098 2.22142 7.22365 2.9655 7.22365" style="fill:none;stroke-width:1;stroke:#B60E0B;mix-blend-mode:normal;" transform="scale(1 1)" />
                <path id="Path" d="M3.51096 0C2.715 0 0.777496 2.77496 0 3.28111" style="fill:none;stroke-width:1;stroke:#B60E0B;mix-blend-mode:normal;" transform="matrix(1 0 0 1 0.738 5.768)" />
                <path id="Path" d="M0 1.95956L3.98163 0" style="fill:none;stroke-width:1;stroke:#B60E0B;mix-blend-mode:normal;" transform="matrix(1 0 0 1 5.718 1.877)" />
              </g>
            </g>
          </g>
          <g id="Group" transform="matrix(1 0 0 1 363.102 270.788)">
            <path id="Path" d="M20.1339 4.07573C10.4193 -8.49586 -5.90637 11.0958 2.17701 21.2938C13.549 35.6411 24.4109 14.0845 9.82141 14.0845" style="fill:none;stroke-width:4;stroke:#8C8C8C;mix-blend-mode:normal;" transform="scale(1 1)" />
            <path id="Path" d="M5.66822 0C2.56581 0.388824 -0.60906 10.4287 0.100443 10.4287" style="fill:none;stroke-width:4;stroke:#8C8C8C;mix-blend-mode:normal;" transform="matrix(1 0 0 1 23.413 14.994)" />
            <path id="Path" d="M7.42461 0C-13.7185 0 17.1219 26.1671 16.0788 8.95913" style="fill:none;stroke-width:4;stroke:#8C8C8C;mix-blend-mode:normal;" transform="matrix(1 0 0 1 31.748 16.255)" />
            <path id="Path" d="M5.66821 0C5.66821 2.43045 4.61954 8.3508 0 3.87359" style="fill:none;stroke-width:4;stroke:#8C8C8C;mix-blend-mode:normal;" transform="matrix(1 0 0 1 33.764 17.094)" />
            <path id="Path" d="M4.5761 1.19483C-2.04655 -5.23288 -1.67286 16.6456 6.95586 10.7836C5.92241 0.279939 4.39855 -0.390624 6.45137 15.543C6.81401 18.7844 7.96566 22.7469 7.96566 25.832" style="fill:none;stroke-width:4;stroke:#8C8C8C;mix-blend-mode:normal;" transform="matrix(1 0 0 1 51.327 10.931)" />
            <path id="Path" d="M6.46426 1.95959C2.47293 -5.78729 -6.65499 18.1523 8.12311 13.0883C12.3555 11.6384 9.35254 0 5.09415 0" style="fill:none;stroke-width:4;stroke:#8C8C8C;mix-blend-mode:normal;" transform="matrix(1 0 0 1 60.041 13.036)" />
            <path id="Path" d="M0.0575333 0C-0.385521 4.73132 1.85038 10.8422 2.65369 15.6083C2.75932 16.234 2.78156 16.8704 2.87028 17.4984C2.94996 18.0602 3.0626 18.6179 3.1587 19.1781C3.23069 19.5977 3.3223 20.0155 3.37482 20.4375C3.41853 20.7863 3.39008 21.1419 3.44715 21.4876C3.4867 21.7285 3.60624 21.9506 3.66364 22.1877C3.66471 22.1917 3.98154 23.3193 4.02399 23.2378C4.58643 22.1457 1.71583 9.83722 5.6106 10.7093C10.027 11.6978 11.6241 23.5876 15.9953 23.5876" style="fill:none;stroke-width:4;stroke:#8C8C8C;mix-blend-mode:normal;" transform="matrix(1 0 0 1 70.413 2.956)" />
          </g>
        </g>
      </g>
    </g>
  </g>
</svg>